<?xml version="1.0" encoding="UTF-8"?> <svg xmlns="http://www.w3.org/2000/svg" xmlns:xlink="http://www.w3.org/1999/xlink" version="1.1" width="641" height="141"><defs><clipPath id="QASkObObIfNX"><path fill="none" stroke="none" d=" M 0 0 L 641 0 L 641 141 L 0 141 L 0 0 Z"></path></clipPath></defs><g transform="scale(1,1)" clip-path="url(#QASkObObIfNX)"><g transform="translate(-228,-440)"><rect fill="rgb(255,255,255)" stroke="none" x="0" y="0" width="1524" height="1001" fill-opacity="1"></rect><path fill="none" stroke="rgb(0,0,0)" paint-order="fill stroke markers" d=" M 328.7178444279935 520.7180223441238 C 328.7178444279935 533.1173416636507 318.666210098473 543.1689759931712 306.2668907789462 543.1689759931712 C 293.8675714594194 543.1689759931712 283.81593712989894 533.1173416636507 283.81593712989894 520.7180223441238 C 283.81593712989894 508.31870302459697 293.8675714594194 498.26706869507643 306.2668907789462 498.26706869507643 C 318.666210098473 498.26706869507643 328.7178444279935 508.31870302459697 328.7178444279935 520.7180223441238 Z" stroke-opacity="0.8" stroke-linecap="round" stroke-linejoin="round" stroke-miterlimit="10" stroke-width="4"></path><path fill="none" stroke="rgb(0,0,0)" paint-order="fill stroke markers" d=" M 501.38960054319114 519.8190577150127 C 501.38960054319114 532.2183770345396 491.33796621367065 542.2700113640601 478.93864689414386 542.2700113640601 C 466.53932757461706 542.2700113640601 456.48769324509664 532.2183770345396 456.48769324509664 519.8190577150127 C 456.48769324509664 507.41973839548587 466.53932757461706 497.3681040659653 478.93864689414386 497.3681040659653 C 491.33796621367065 497.3681040659653 501.38960054319114 507.41973839548587 501.38960054319114 519.8190577150127 Z" stroke-opacity="0.8" stroke-linecap="round" stroke-linejoin="round" stroke-miterlimit="10" stroke-width="4"></path><path fill="none" stroke="rgb(0,0,0)" paint-order="fill stroke markers" d=" M 672.6208400843715 519.6999201536111 C 672.6208400843715 532.0992394731379 662.5692057548509 542.1508738026585 650.1698864353242 542.1508738026585 C 637.7705671157973 542.1508738026585 627.7189327862769 532.0992394731379 627.7189327862769 519.6999201536111 C 627.7189327862769 507.3006008340842 637.7705671157973 497.24896650456367 650.1698864353242 497.24896650456367 C 662.5692057548509 497.24896650456367 672.6208400843715 507.3006008340842 672.6208400843715 519.6999201536111 Z" stroke-opacity="0.8" stroke-linecap="round" stroke-linejoin="round" stroke-miterlimit="10" stroke-width="4"></path><path fill="none" stroke="rgb(0,0,0)" paint-order="fill stroke markers" d=" M 844.989319377466 519.7634629202009 C 844.989319377466 532.1627822397278 834.9376850479456 542.2144165692483 822.5383657284189 542.2144165692483 C 810.139046408892 542.2144165692483 800.0874120793716 532.1627822397278 800.0874120793716 519.7634629202009 C 800.0874120793716 507.3641436006741 810.139046408892 497.31250927115354 822.5383657284189 497.31250927115354 C 834.9376850479456 497.31250927115354 844.989319377466 507.3641436006741 844.989319377466 519.7634629202009 Z" stroke-opacity="0.8" stroke-linecap="round" stroke-linejoin="round" stroke-miterlimit="10" stroke-width="4"></path><path fill="none" stroke="rgb(21,101,192)" paint-order="fill stroke markers" d=" M 468.0945678046334 490.13924021615594 C 447.8762642078262 469.1330534492396 419.8626298135276 457.4359809893348 390.7098159355532 457.82729392729414 C 361.55700205757876 458.21860686525355 333.8674191949738 470.66337351652624 314.2202227245731 492.20466766689503" stroke-opacity="0.8" stroke-linecap="round" stroke-linejoin="round" stroke-miterlimit="10" stroke-width="2"></path><path fill="none" stroke="rgb(21,101,192)" paint-order="fill stroke markers" d=" M 640.5577599413452 490.65559707884074 C 620.4609103221919 469.67907358846486 592.6705082679397 457.8177444362939 563.6205874013151 457.8177444362939 C 534.5706665346905 457.8177444362939 506.7802644804383 469.6790735884648 486.683414861285 490.65559707884074" stroke-opacity="0.8" stroke-linecap="round" stroke-linejoin="round" stroke-miterlimit="10" stroke-width="2"></path><path fill="none" stroke="rgb(21,101,192)" paint-order="fill stroke markers" d=" M 812.5045952153723 492.20466766689503 C 792.3848478039266 470.37198270780226 764.0785941156275 457.9089096965467 734.3891891469269 457.81092486166654 C 704.6997841782263 457.7129400267863 676.3118835044415 469.988903617705 656.0484658218882 491.6883108042103" stroke-opacity="0.8" stroke-linecap="round" stroke-linejoin="round" stroke-miterlimit="10" stroke-width="2"></path><path fill="none" stroke="rgb(0,0,0)" paint-order="fill stroke markers" d=" M 220.6151025661809 543.5984934675657 L 906.8605786828615 543.5984934675657" stroke-opacity="0.8" stroke-linecap="round" stroke-linejoin="round" stroke-miterlimit="10" stroke-width="2.5"></path><path fill="none" stroke="rgb(0,0,0)" paint-order="fill stroke markers" d=" M 248.53524903524755 521.7967031088333 L 274.2694543896231 521.7967031088333" stroke-opacity="0.8" stroke-linecap="round" stroke-linejoin="round" stroke-miterlimit="10" stroke-width="4.5"></path><path fill="none" stroke="rgb(0,0,0)" paint-order="fill stroke markers" d=" M 255.12399712179706 512.8253931578104 L 280.8582024761726 512.8253931578104" stroke-opacity="0.8" stroke-linecap="round" stroke-linejoin="round" stroke-miterlimit="10" stroke-width="4.5"></path><path fill="none" stroke="rgb(0,0,0)" paint-order="fill stroke markers" d=" M 255.8640534849934 530.3381395924775 L 281.5982588393689 530.3381395924775" stroke-opacity="0.8" stroke-linecap="round" stroke-linejoin="round" stroke-miterlimit="10" stroke-width="4.5"></path><path fill="none" stroke="rgb(97,97,97)" paint-order="fill stroke markers" d=" M 422.22945804405606 521.1194951899348 L 447.96366339843155 521.1194951899348" stroke-opacity="0.8" stroke-linecap="round" stroke-linejoin="round" stroke-miterlimit="10" stroke-width="4.5"></path><path fill="none" stroke="rgb(97,97,97)" paint-order="fill stroke markers" d=" M 426.73925978279027 511.5569955038376 L 452.4734651371658 511.5569955038376" stroke-opacity="0.8" stroke-linecap="round" stroke-linejoin="round" stroke-miterlimit="10" stroke-width="4.5"></path><path fill="none" stroke="rgb(97,97,97)" paint-order="fill stroke markers" d=" M 426.0950023915426 531.7497421455226 L 451.8292077459181 531.7497421455226" stroke-opacity="0.8" stroke-linecap="round" stroke-linejoin="round" stroke-miterlimit="10" stroke-width="4.5"></path><path fill="none" stroke="rgb(97,97,97)" paint-order="fill stroke markers" d=" M 595.5346962897002 511.1335056255948 L 621.2689016440758 511.1335056255948" stroke-opacity="0.8" stroke-linecap="round" stroke-linejoin="round" stroke-miterlimit="10" stroke-width="4.5"></path><path fill="none" stroke="rgb(97,97,97)" paint-order="fill stroke markers" d=" M 587.8036075947273 523.374396059302 L 613.5378129491028 523.374396059302" stroke-opacity="0.8" stroke-linecap="round" stroke-linejoin="round" stroke-miterlimit="10" stroke-width="4.5"></path><path fill="none" stroke="rgb(97,97,97)" paint-order="fill stroke markers" d=" M 594.8904388984524 534.9710291017614 L 620.624644252828 534.9710291017614" stroke-opacity="0.8" stroke-linecap="round" stroke-linejoin="round" stroke-miterlimit="10" stroke-width="4.5"></path><path fill="none" stroke="rgb(97,97,97)" paint-order="fill stroke markers" d=" M 766.9071623616012 512.4220204080904 L 792.6413677159767 512.4220204080904" stroke-opacity="0.8" stroke-linecap="round" stroke-linejoin="round" stroke-miterlimit="10" stroke-width="4.5"></path><path fill="none" stroke="rgb(97,97,97)" paint-order="fill stroke markers" d=" M 760.4645884491237 522.3066487898114 L 786.1987938034993 522.3066487898114" stroke-opacity="0.8" stroke-linecap="round" stroke-linejoin="round" stroke-miterlimit="10" stroke-width="4.5"></path><path fill="none" stroke="rgb(97,97,97)" paint-order="fill stroke markers" d=" M 767.5514197528489 530.4612273630272 L 793.2856251072244 530.4612273630272" stroke-opacity="0.8" stroke-linecap="round" stroke-linejoin="round" stroke-miterlimit="10" stroke-width="4.5"></path><path fill="none" stroke="rgb(21,101,192)" paint-order="fill stroke markers" d=" M 305.95851292161683 551.585706875643 L 305.95851292161683 568.1091264815556" stroke-opacity="0.8" stroke-linecap="round" stroke-linejoin="round" stroke-miterlimit="10" stroke-width="2.5"></path><path fill="none" stroke="rgb(21,101,192)" paint-order="fill stroke markers" d=" M 477.38899133295916 550.5529931502736 L 477.38899133295916 568.6254833442404" stroke-opacity="0.8" stroke-linecap="round" stroke-linejoin="round" stroke-miterlimit="10" stroke-width="2.5"></path><path fill="none" stroke="rgb(21,101,192)" paint-order="fill stroke markers" d=" M 648.8194697443015 552.1020637383278 L 648.8194697443015 569.141840206925" stroke-opacity="0.8" stroke-linecap="round" stroke-linejoin="round" stroke-miterlimit="10" stroke-width="2.5"></path><path fill="none" stroke="rgb(21,101,192)" paint-order="fill stroke markers" d=" M 820.7663050183287 551.0693500129582 L 820.7663050183287 567.5927696188708" stroke-opacity="0.8" stroke-linecap="round" stroke-linejoin="round" stroke-miterlimit="10" stroke-width="2.5"></path><path fill="none" stroke="rgb(21,101,192)" paint-order="fill stroke markers" d=" M 311.7480159873531 568.2498445821104 L 369.5799846080469 568.2498445821104" stroke-opacity="0.8" stroke-linecap="round" stroke-linejoin="round" stroke-miterlimit="10" stroke-width="2.5"></path><path fill="none" stroke="rgb(21,101,192)" paint-order="fill stroke markers" d=" M 472.27232873962987 570.0023048134052 L 411.8585758055122 570.0023048134052" stroke-opacity="0.8" stroke-linecap="round" stroke-linejoin="round" stroke-miterlimit="10" stroke-width="2.5"></path><path fill="none" stroke="rgb(21,101,192)" paint-order="fill stroke markers" d=" M 483.1784943986955 570.3621780663677 L 533.7814669418026 570.8785349290525" stroke-opacity="0.8" stroke-linecap="round" stroke-linejoin="round" stroke-miterlimit="10" stroke-width="2.5"></path><path fill="none" stroke="rgb(21,101,192)" paint-order="fill stroke markers" d=" M 654.4524892003157 568.6097178350731 L 714.3498852717486 569.1260746977578" stroke-opacity="0.8" stroke-linecap="round" stroke-linejoin="round" stroke-miterlimit="10" stroke-width="2.5"></path><path fill="none" stroke="rgb(21,101,192)" paint-order="fill stroke markers" d=" M 762.2457304160607 570.3621780663677 L 821.110412762124 570.3621780663677" stroke-opacity="0.8" stroke-linecap="round" stroke-linejoin="round" stroke-miterlimit="10" stroke-width="2.5"></path><path fill="none" stroke="rgb(21,101,192)" paint-order="fill stroke markers" d=" M 585.0415144481493 570.5186616760899 L 644.9389105195821 570.5186616760899" stroke-opacity="0.8" stroke-linecap="round" stroke-linejoin="round" stroke-miterlimit="10" stroke-width="2.5"></path><path fill="rgb(255,255,255)" stroke="none" paint-order="stroke fill markers" d=" M 371 546 L 415 546 L 415 589 L 371 589 L 371 546 Z" fill-opacity="1"></path><text fill="rgb(0,0,0)" stroke="none" font-family="geogebra-serif, serif" font-size="25px" font-style="normal" font-weight="normal" text-decoration="normal" x="374" y="574" text-anchor="start" fill-opacity="1">4 m</text><path fill="rgb(255,255,255)" stroke="none" paint-order="stroke fill markers" d=" M 371 435 L 410 435 L 410 478 L 371 478 L 371 435 Z" fill-opacity="1"></path><text fill="rgb(0,0,0)" stroke="none" font-family="geogebra-sans-serif, sans-serif" font-size="25px" font-style="normal" font-weight="normal" text-decoration="normal" x="374" y="463" text-anchor="start" fill-opacity="1">2 s</text><path fill="rgb(255,255,255)" stroke="none" paint-order="stroke fill markers" d=" M 549 434 L 588 434 L 588 477 L 549 477 L 549 434 Z" fill-opacity="1"></path><text fill="rgb(0,0,0)" stroke="none" font-family="geogebra-sans-serif, sans-serif" font-size="25px" font-style="normal" font-weight="normal" text-decoration="normal" x="552" y="462" text-anchor="start" fill-opacity="1">2 s</text><path fill="rgb(255,255,255)" stroke="none" paint-order="stroke fill markers" d=" M 723 432 L 762 432 L 762 475 L 723 475 L 723 432 Z" fill-opacity="1"></path><text fill="rgb(0,0,0)" stroke="none" font-family="geogebra-sans-serif, sans-serif" font-size="25px" font-style="normal" font-weight="normal" text-decoration="normal" x="726" y="460" text-anchor="start" fill-opacity="1">2 s</text><path fill="rgb(255,255,255)" stroke="none" paint-order="stroke fill markers" d=" M 540 545 L 584 545 L 584 588 L 540 588 L 540 545 Z" fill-opacity="1"></path><text fill="rgb(0,0,0)" stroke="none" font-family="geogebra-serif, serif" font-size="25px" font-style="normal" font-weight="normal" text-decoration="normal" x="543" y="573" text-anchor="start" fill-opacity="1">4 m</text><path fill="rgb(255,255,255)" stroke="none" paint-order="stroke fill markers" d=" M 718 546 L 762 546 L 762 589 L 718 589 L 718 546 Z" fill-opacity="1"></path><text fill="rgb(0,0,0)" stroke="none" font-family="geogebra-serif, serif" font-size="25px" font-style="normal" font-weight="normal" text-decoration="normal" x="721" y="574" text-anchor="start" fill-opacity="1">4 m</text></g></g></svg> 